<?xml version="1.0" encoding="UTF-8"?>
<svg width="35px" height="81px" viewBox="0 0 35 81" version="1.1" xmlns="http://www.w3.org/2000/svg" xmlns:xlink="http://www.w3.org/1999/xlink">
    <!-- Generator: Sketch 50 (54983) - http://www.bohemiancoding.com/sketch -->
    <title>{</title>
    <desc>Created with Sketch.</desc>
    <defs></defs>
    <g id="Welcome" stroke="none" stroke-width="1" fill="none" fill-rule="evenodd">
        <g id="Desktop" transform="translate(-877.000000, -219.000000)" fill="#D5D7DD">
            <g id="Group-2" transform="translate(112.000000, 199.000000)">
                <path d="M788.30787,60.1827685 C784.95152,59.5612222 782.543064,58.1938408 781.082431,56.0805833 C779.621797,53.9673259 778.891491,50.9217946 778.891491,46.9438981 L778.891491,36.4087407 C778.891491,33.7982462 778.518569,31.9025584 777.772713,30.7216204 C777.026857,29.5406824 775.659476,28.9502222 773.670528,28.9502222 L767,28.9502222 C765.895431,28.9502222 765,28.0547917 765,26.9502222 L765,22 C765,20.8954305 765.895431,20 767,20 L774.696074,20 C780.289991,20 784.159059,21.2119971 786.303394,23.6360278 C788.447728,26.0600584 789.51988,29.5717424 789.51988,34.1711852 L789.51988,47.876213 C789.51988,50.4867075 789.923879,52.4600875 790.731889,53.796412 C791.539899,55.1327366 792.90728,55.8008889 794.834074,55.8008889 L797.868574,55.8008889 C798.973144,55.8008889 799.868574,56.6963194 799.868574,57.8008889 L799.868574,62.7511111 C799.868574,63.8556806 798.973144,64.7511111 797.868574,64.7511111 L794.834074,64.7511111 C792.90728,64.7511111 791.539899,65.4192634 790.731889,66.755588 C789.923879,68.0919125 789.51988,70.0342157 789.51988,72.5825556 L789.51988,86.3808148 C789.51988,90.9802576 788.447728,94.4919416 786.303394,96.9159722 C784.159059,99.3400029 780.289991,100.552 774.696074,100.552 L767,100.552 C765.895431,100.552 765,99.6565695 765,98.552 L765,93.6017778 C765,92.4972083 765.895431,91.6017778 767,91.6017778 L773.670528,91.6017778 C775.659476,91.6017778 777.026857,91.0268561 777.772713,89.8769954 C778.518569,88.7271347 778.891491,86.8159084 778.891491,84.1432593 L778.891491,73.6081019 C778.891491,69.6302054 779.621797,66.5846741 781.082431,64.4714167 C782.543064,62.3581592 784.95152,60.9286241 788.30787,60.1827685 Z" id="{"></path>
            </g>
        </g>
    </g>
</svg>