<?xml version="1.0" encoding="UTF-8"?>
<svg width="35px" height="81px" viewBox="0 0 35 81" version="1.1" xmlns="http://www.w3.org/2000/svg" xmlns:xlink="http://www.w3.org/1999/xlink">
    <!-- Generator: Sketch 50 (54983) - http://www.bohemiancoding.com/sketch -->
    <title>{</title>
    <desc>Created with Sketch.</desc>
    <defs></defs>
    <g id="Welcome" stroke="none" stroke-width="1" fill="none" fill-rule="evenodd">
        <g id="Desktop" transform="translate(-389.000000, -219.000000)" fill="#D5D7DD">
            <g id="Group-2" transform="translate(112.000000, 199.000000)">
                <path d="M288.560704,60.3692315 C291.917054,60.9907778 294.32551,62.3581592 295.786144,64.4714167 C297.246777,66.5846741 297.977083,69.6302054 297.977083,73.6081019 L297.977083,84.1432593 C297.977083,86.7537538 298.350006,88.6494416 299.095861,89.8303796 C299.841717,91.0113176 301.209098,91.6017778 303.198046,91.6017778 L309.868574,91.6017778 C310.973144,91.6017778 311.868574,92.4972083 311.868574,93.6017778 L311.868574,98.552 C311.868574,99.6565695 310.973144,100.552 309.868574,100.552 L302.1725,100.552 C296.578583,100.552 292.709515,99.3400029 290.565181,96.9159722 C288.420846,94.4919416 287.348694,90.9802576 287.348694,86.3808148 L287.348694,72.675787 C287.348694,70.0652925 286.944695,68.0919125 286.136685,66.755588 C285.328675,65.4192634 283.961294,64.7511111 282.0345,64.7511111 L279,64.7511111 C277.895431,64.7511111 277,63.8556806 277,62.7511111 L277,57.8008889 C277,56.6963194 277.895431,55.8008889 279,55.8008889 L282.0345,55.8008889 C283.961294,55.8008889 285.328675,55.1327366 286.136685,53.796412 C286.944695,52.4600875 287.348694,50.5177843 287.348694,47.9694444 L287.348694,34.1711852 C287.348694,29.5717424 288.420846,26.0600584 290.565181,23.6360278 C292.709515,21.2119971 296.578583,20 302.1725,20 L309.868574,20 C310.973144,20 311.868574,20.8954305 311.868574,22 L311.868574,26.9502222 C311.868574,28.0547917 310.973144,28.9502222 309.868574,28.9502222 L303.198046,28.9502222 C301.209098,28.9502222 299.841717,29.5251439 299.095861,30.6750046 C298.350006,31.8248653 297.977083,33.7360916 297.977083,36.4087407 L297.977083,46.9438981 C297.977083,50.9217946 297.246777,53.9673259 295.786144,56.0805833 C294.32551,58.1938408 291.917054,59.6233759 288.560704,60.3692315 Z" id="{"></path>
            </g>
        </g>
    </g>
</svg>