<?xml version="1.0" encoding="UTF-8"?>
<svg width="200px" height="195px" viewBox="0 0 200 195" version="1.1" xmlns="http://www.w3.org/2000/svg" xmlns:xlink="http://www.w3.org/1999/xlink">
    <!-- Generator: Sketch 50 (54983) - http://www.bohemiancoding.com/sketch -->
    <title>main-logo</title>
    <desc>Created with Sketch.</desc>
    <defs></defs>
    <g id="Welcome" stroke="none" stroke-width="1" fill="none" fill-rule="evenodd">
        <g id="Desktop" transform="translate(-112.000000, -199.000000)" fill="#DD7096" fill-rule="nonzero">
            <g id="Group-2" transform="translate(112.000000, 199.000000)">
                <path d="M155.555556,48 C155.555556,49.1045695 154.660125,50 153.555556,50 L124.222222,50 C123.117653,50 122.222222,49.1045695 122.222222,48 L122.222222,35.3333333 C122.222222,34.2287638 121.326792,33.3333333 120.222222,33.3333333 L35.3333333,33.3333333 C34.2287638,33.3333333 33.3333333,34.2287638 33.3333333,35.3333333 L33.3333333,159.111111 C33.3333333,160.215681 34.2287638,161.111111 35.3333333,161.111111 L120.222222,161.111111 C121.326792,161.111111 122.222222,160.215681 122.222222,159.111111 L122.222222,146.444444 C122.222222,145.339875 123.117653,144.444444 124.222222,144.444444 L153.555556,144.444444 C154.660125,144.444444 155.555556,145.339875 155.555556,146.444444 L155.555556,192.444444 C155.555556,193.549014 154.660125,194.444444 153.555556,194.444444 L10,194.444444 C4.4771525,194.444444 1.36158188e-14,189.967292 -1.77635684e-15,184.444444 L-1.77635684e-15,10 C-2.45271059e-15,4.4771525 4.4771525,-7.61826213e-16 10,-1.77635684e-15 L153.555556,-1.13242749e-14 C154.660125,-5.64085222e-15 155.555556,0.8954305 155.555556,2 L155.555556,48 Z M109.111111,44.4440741 C110.215681,44.4440741 111.111111,45.3395046 111.111111,46.4440741 L111.111111,73 C111.111111,74.1045695 110.215681,75 109.111111,75 L88.1114815,75 C87.006912,75 86.1114815,74.1045695 86.1114815,73 L86.1114815,68.6666667 C86.1114815,67.5620972 85.216051,66.6666667 84.1114815,66.6666667 L71.4444444,66.6666667 C70.3398749,66.6666667 69.4444444,67.5620972 69.4444444,68.6666667 L69.4444444,84.1111111 C69.4444444,85.2156806 70.3398749,86.1111111 71.4444444,86.1111111 L109.111111,86.1111111 C110.215681,86.1111111 111.111111,87.0065416 111.111111,88.1111111 L111.111111,148 C111.111111,149.104569 110.215681,150 109.111111,150 L46.4448148,150 C45.3402453,150 44.4448148,149.104569 44.4448148,148 L44.4448148,121.444444 C44.4448148,120.339875 45.3402453,119.444444 46.4448148,119.444444 L67.4444444,119.444444 C68.5490139,119.444444 69.4444444,120.339875 69.4444444,121.444444 L69.4444444,125.777407 C69.4444444,126.881977 70.3398749,127.777407 71.4444444,127.777407 L84.1114815,127.777407 C85.216051,127.777407 86.1114815,126.881977 86.1114815,125.777407 L86.1114815,110.332963 C86.1114815,109.228393 85.216051,108.332963 84.1114815,108.332963 L46.4448148,108.332963 C45.3402453,108.332963 44.4448148,107.437532 44.4448148,106.332963 L44.4448148,46.4440741 C44.4448148,45.3395046 45.3402453,44.4440741 46.4448148,44.4440741 L109.111111,44.4440741 Z M155.555556,113.111111 L155.555556,131.333333 C155.555556,132.437903 154.660125,133.333333 153.555556,133.333333 L124.222222,133.333333 C123.117653,133.333333 122.222222,132.437903 122.222222,131.333333 L122.222222,63.1111111 C122.222222,62.0065416 123.117653,61.1111111 124.222222,61.1111111 L153.555556,61.1111111 C154.660125,61.1111111 155.555556,62.0065416 155.555556,63.1111111 L155.555556,81.3333333 C155.555556,82.4379028 156.450986,83.3333333 157.555556,83.3333333 L164.666667,83.3333333 C165.771236,83.3333333 166.666667,82.4379028 166.666667,81.3333333 L166.666667,2 C166.666667,0.8954305 167.562097,2.02906125e-16 168.666667,0 L190,-1.77635684e-15 C195.522847,-2.79088747e-15 200,4.4771525 200,10 L200,184.444444 C200,189.967292 195.522847,194.444444 190,194.444444 L168.666667,194.444444 C167.562097,194.444444 166.666667,193.549014 166.666667,192.444444 L166.666667,113.111111 C166.666667,112.006542 165.771236,111.111111 164.666667,111.111111 L157.555556,111.111111 C156.450986,111.111111 155.555556,112.006542 155.555556,113.111111 Z" id="main-logo"></path>
            </g>
        </g>
    </g>
</svg>